<?xml version="1.0" encoding="iso-8859-1"?>
<!-- Generator: Adobe Illustrator 16.0.0, SVG Export Plug-In . SVG Version: 6.00 Build 0)  -->
<!DOCTYPE svg PUBLIC "-//W3C//DTD SVG 1.1//EN" "http://www.w3.org/Graphics/SVG/1.1/DTD/svg11.dtd">
<svg version="1.1" id="Capa_1" xmlns="http://www.w3.org/2000/svg" xmlns:xlink="http://www.w3.org/1999/xlink" x="0px" y="0px"
	 width="569.859px" height="569.858px" viewBox="0 0 569.859 569.858" style="enable-background:new 0 0 569.859 569.858;"
	 xml:space="preserve">
<g>
	<path d="M155.716,569.858h258.426c21.221,0,38.432-17.203,38.432-38.441V38.441C452.574,17.212,435.371,0,414.142,0H155.716
		c-21.238,0-38.432,17.212-38.432,38.441v492.976C117.285,552.655,134.478,569.858,155.716,569.858z M284.294,546.392
		c-13.378,0-24.203-10.815-24.203-24.184c0-13.359,10.825-24.184,24.203-24.184c13.331,0,24.184,10.824,24.184,24.184
		C308.478,535.576,297.625,546.392,284.294,546.392z M169.151,74.004c0-5.843,4.733-10.576,10.586-10.576h210.375
		c5.852,0,10.586,4.733,10.586,10.576v379.517c0,5.843-4.734,10.586-10.586,10.586H179.737c-5.853,0-10.586-4.743-10.586-10.586
		V74.004L169.151,74.004z"/>
	<path d="M284.925,269.939c28.448,0,51.512-23.074,51.512-51.494c0-28.468-23.064-51.542-51.512-51.542
		c-28.468,0-51.504,23.084-51.504,51.542C233.421,246.856,256.467,269.939,284.925,269.939z"/>
	<path d="M281.1,350.36c39.435,0,60.587-7.21,70.783-12.488c4.828-2.496,8.309-9.754,7.945-15.071
		c-0.889-12.804-4.752-36.127-20.32-55.998c-2.352-3.002-6.646-6.292-10.805-8.54c-10.768,12.059-26.375,19.699-43.778,19.699
		c-17.385,0-32.991-7.631-43.749-19.679c-4.064,2.314-8.243,5.594-10.519,8.577c-7.392,9.649-18.791,28.344-20.617,53.521
		c-0.383,5.308,2.151,13.426,6.588,16.533C225.054,342.815,243.242,350.36,281.1,350.36z"/>
</g>
<g>
</g>
<g>
</g>
<g>
</g>
<g>
</g>
<g>
</g>
<g>
</g>
<g>
</g>
<g>
</g>
<g>
</g>
<g>
</g>
<g>
</g>
<g>
</g>
<g>
</g>
<g>
</g>
<g>
</g>
</svg>
