<?xml version="1.0" encoding="iso-8859-1"?>
<!-- Generator: Adobe Illustrator 19.0.0, SVG Export Plug-In . SVG Version: 6.00 Build 0)  -->
<svg version="1.1" id="Capa_1" xmlns="http://www.w3.org/2000/svg" xmlns:xlink="http://www.w3.org/1999/xlink" x="0px" y="0px"
	 viewBox="0 0 512 512" style="enable-background:new 0 0 512 512;" xml:space="preserve">
<polygon style="fill:#007CD6;" points="512,17.017 256,17.017 235.984,338.187 512,318.171 "/>
<polygon style="fill:#E0E3E6;" points="326.597,137.399 256,137.399 235.984,179.838 256,222.277 326.597,222.277 "/>
<polygon style="fill:#51B1F5;" points="256,17.017 0,17.017 0,17.017 0,318.171 256,338.187 "/>
<circle style="fill:#39C453;" cx="359.8" cy="179.84" r="74.05"/>
<polygon style="fill:#FFFFFF;" points="78.15,137.399 78.15,222.277 256,222.277 256,194.841 245.992,179.84 256,164.84 
	256,137.399 "/>
<polygon style="fill:#898989;" points="235.984,479.983 326.597,479.983 315.817,405.578 235.984,385.562 "/>
<g>
	<polygon style="fill:#CCCDD2;" points="196.183,405.578 185.403,479.983 256,479.983 256,385.562 	"/>
	<polygon style="fill:#CCCDD2;" points="256,405.578 315.817,405.578 512,405.578 512,318.171 256,318.171 235.984,361.875 	"/>
</g>
<polygon style="fill:#F5F5F6;" points="256,318.171 0,318.171 0,405.578 196.183,405.578 256,405.578 "/>
<polygon style="fill:#898989;" points="278.271,346.875 256,346.875 245.992,361.875 256,376.875 278.271,376.875 "/>
<g>
	<rect x="233.73" y="346.87" style="fill:#CCCDD2;" width="22.272" height="30"/>
	<polygon style="fill:#CCCDD2;" points="382.12,464.983 256,464.983 235.984,479.983 256,494.983 382.12,494.983 	"/>
</g>
<rect x="129.88" y="464.98" style="fill:#F5F5F6;" width="126.12" height="30"/>
<g>
	<rect x="113.15" y="164.84" style="fill:#FC707B;" width="32.2" height="30"/>
	<rect x="168.47" y="164.84" style="fill:#FC707B;" width="32.2" height="30"/>
	<rect x="223.79" y="164.84" style="fill:#FC707B;" width="32.2" height="30"/>
</g>
<polygon style="fill:#B8F5C1;" points="351.966,221.571 314.181,183.786 335.393,162.573 351.966,179.145 382.398,148.712 
	403.611,169.925 "/>
<g>
</g>
<g>
</g>
<g>
</g>
<g>
</g>
<g>
</g>
<g>
</g>
<g>
</g>
<g>
</g>
<g>
</g>
<g>
</g>
<g>
</g>
<g>
</g>
<g>
</g>
<g>
</g>
<g>
</g>
</svg>
