<?xml version="1.0" encoding="iso-8859-1"?>
<!-- Generator: Adobe Illustrator 19.0.0, SVG Export Plug-In . SVG Version: 6.00 Build 0)  -->
<svg version="1.1" id="Layer_1" xmlns="http://www.w3.org/2000/svg" xmlns:xlink="http://www.w3.org/1999/xlink" x="0px" y="0px"
	 viewBox="0 0 508 508" style="enable-background:new 0 0 508 508;" xml:space="preserve">
<circle style="fill:#4CDBC4;" cx="254" cy="254" r="254"/>
<path style="fill:#F9B54C;" d="M254.4,322.8C254,322.8,254,322.8,254.4,322.8c-0.4,0-0.4,0-0.4,0c-60.8-29.6-54-68-54-68
	c0-0.8,0-1.2,0.4-2c0.4,0.4,0.8,0.8,1.2,1.6c14,21.6,32.4,36.8,52.8,36.8s38.8-14.8,52.8-36.8c0.4-0.4,0.8-0.8,1.2-1.2
	c0,0.4,0.4,1.2,0.4,1.6c0,0,0,0.4,0,0.8C309.2,261.6,309.6,296,254.4,322.8z"/>
<path style="fill:#F1543F;" d="M254.4,322.8C254,322.8,254,322.8,254.4,322.8c-0.4,0-0.4,0-0.4,0H254.4z"/>
<path style="fill:#324A5E;" d="M254,508c82,0,154.4-38.8,200.8-98.8l-26-80l-109.2-52.8c0,18.8-0.8,51.2-6.8,92.8
	c-13.6-42.8-58.8-46.4-58.8-46.4s-45.2,3.6-58.8,46.4c-6-41.6-6.8-74.4-6.8-92.8L78.8,329.2l-26,80C99.6,469.2,172,508,254,508z"/>
<g>
	<path style="fill:#FFFFFF;" d="M308.4,254.8c0,0,6.8,38.4-54.4,68.4c0,0,45.6,3.6,58.8,46.4C313.6,370.8,338.4,277.6,308.4,254.8z"
		/>
	<path style="fill:#FFFFFF;" d="M199.6,254.8c0,0-6.8,38.4,54.4,68.4c0,0-45.6,3.6-58.8,46.4C194.4,370.8,169.6,277.6,199.6,254.8z"
		/>
</g>
<g>
	<path style="fill:#FFD05B;" d="M316.8,236L316.8,236c-14.8,31.2-37.2,54.8-62.8,54.8c-27.6,0-51.6-27.6-66.4-62.4
		c-5.6-0.4-12-4.8-15.2-12c-3.6-7.2-3.2-14.8,0-19.6c6.8,18.4,15.2,30.8,15.2,30.8c-19.6-45.6,15.2-98.8,15.2-98.8
		c53.6,13.6,76.4-2.8,76.4-2.8c39.2-6.4,43.6,18.8,42.4,35.2c-0.4,9.2,0.4,18,1.6,27.2C326,211.2,318.4,232.8,316.8,236z"/>
	<path style="fill:#FFD05B;" d="M335.6,216.4c-3.2,6.4-8,10.8-13.2,12c4-6.4,9.6-16,14.8-28C338.8,204.8,338.4,210.8,335.6,216.4z"
		/>
</g>
<g>
	<path style="fill:#324A5E;" d="M254,46.4c0,0,35.2,1.2,66.4,30.4c68.4,64.4-3.6,159.6-3.6,159.6s9.2-23.2,6.4-47.6
		c-1.2-9.2-2-18-1.6-27.2c1.2-16-3.2-41.6-42.4-35.2c0,0-22.8,16.8-76.4,2.8c0,0-34.8,53.2-15.2,98.8c0,0-57.6-86.8,3.2-142
		l-18.4,3.6c0,0,22.8-41.6,68-27.2c0,0-4.4-7.2-18.4-11.2c0,0,20.4-8.8,32,5.6C254,56.8,260.8,51.2,254,46.4z"/>
	<path style="fill:#324A5E;" d="M322.4,228.4c-2.8,4.4-4.8,7.2-5.6,8l0,0c0,0,0,0,0-0.4c1.2-2.4,2.4-4.8,3.2-7.6
		C320.8,228.4,321.6,228.4,322.4,228.4z"/>
</g>
<circle style="fill:#FFFFFF;" cx="407.2" cy="324" r="57.2"/>
<path style="fill:#FF7058;" d="M441.2,314.8H416v-25.2c0-5.2-4-9.2-9.2-9.2s-9.2,4-9.2,9.2v25.2h-25.2c-5.2,0-9.2,4-9.2,9.2
	s4,9.2,9.2,9.2h25.2V358c0,5.2,4,9.2,9.2,9.2s9.2-4,9.2-9.2v-25.2h25.2c5.2,0,9.2-4,9.2-9.2C450.4,318.8,446.4,314.8,441.2,314.8z"
	/>
<g>
</g>
<g>
</g>
<g>
</g>
<g>
</g>
<g>
</g>
<g>
</g>
<g>
</g>
<g>
</g>
<g>
</g>
<g>
</g>
<g>
</g>
<g>
</g>
<g>
</g>
<g>
</g>
<g>
</g>
</svg>
